<mxfile host="app.diagrams.net" modified="2024-07-06T15:53:28.115Z" agent="Mozilla/5.0 (Windows NT 10.0; WOW64; x64) AppleWebKit/537.36 (KHTML, like Gecko) Chrome/113.0.5666.197 Safari/537.36" version="24.6.4" etag="fFJ5FRRcA_siy34WfCLB" type="github">
  <diagram name="第 1 页" id="w_geISRDsk-yB8LPDC1J">
    <mxGraphModel>
      <root>
        <mxCell id="0" />
        <mxCell id="1" parent="0" />
      </root>
    </mxGraphModel>
  </diagram>
</mxfile>
